<?xml version="1.0" standalone="no"?>
<!DOCTYPE svg PUBLIC "-//W3C//DTD SVG 20010904//EN"
 "http://www.w3.org/TR/2001/REC-SVG-20010904/DTD/svg10.dtd">
<svg version="1.0" xmlns="http://www.w3.org/2000/svg"
 width="700.000000pt" height="700.000000pt" viewBox="0 0 700.000000 700.000000"
 preserveAspectRatio="xMidYMid meet">
<metadata>
Created by potrace 1.14, written by Peter Selinger 2001-2017
</metadata>
<g transform="translate(0.000000,700.000000) scale(0.100000,-0.100000)"
fill="#000000" stroke="none">
<path d="M3957 6324 c-1 -1 -29 -5 -62 -8 -33 -3 -71 -8 -85 -11 -14 -3 -38
-8 -55 -11 -195 -35 -455 -137 -628 -246 -37 -24 -222 -137 -410 -252 l-344
-208 33 -55 c18 -30 40 -80 49 -111 10 -31 21 -69 25 -84 5 -15 7 -71 5 -125
-4 -99 -5 -109 -19 -151 -5 -16 -1 -42 15 -80 12 -31 24 -59 26 -61 2 -3 34
-6 71 -7 37 -1 175 -4 307 -8 132 -4 256 -9 275 -13 95 -16 153 -121 111 -200
-13 -26 -106 -136 -161 -192 -9 -9 -79 -86 -155 -171 -77 -85 -147 -161 -155
-170 -32 -34 -198 -217 -241 -265 -24 -27 -46 -52 -49 -55 -4 -3 -33 -34 -65
-70 -147 -161 -241 -264 -250 -275 -5 -6 -27 -30 -49 -52 l-38 -41 928 -307
c511 -169 1089 -360 1284 -425 1145 -380 1747 -579 1760 -582 10 -2 14 5 13
22 -2 64 -14 279 -18 310 -2 19 -6 91 -9 160 -4 69 -9 152 -11 185 -3 33 -7
105 -10 160 -3 55 -8 132 -10 170 -3 39 -7 108 -10 155 -2 47 -7 119 -10 160
-6 91 -13 212 -20 340 -2 52 -7 129 -10 170 -6 84 -12 171 -20 305 -3 50 -7
126 -10 170 -3 44 -7 123 -10 175 -33 608 -334 1132 -842 1464 -86 56 -144 87
-318 167 -42 19 -184 62 -267 80 -167 37 -260 47 -421 46 -75 0 -138 -2 -140
-3z"/>
<path d="M1461 5783 c-64 -16 -116 -52 -154 -105 l-28 -40 -37 39 c-56 57
-104 77 -187 77 -112 0 -198 -57 -241 -161 -17 -40 -23 -122 -11 -164 7 -26 6
-26 -51 -26 -169 1 -294 -155 -257 -320 11 -49 35 -88 84 -140 12 -13 25 -23
29 -23 4 0 13 -4 21 -9 12 -8 7 -17 -24 -48 -167 -167 -58 -445 175 -447 36 0
75 3 87 7 20 7 21 5 14 -20 -19 -69 28 -188 92 -237 130 -100 303 -69 394 70
l17 26 30 -34 c69 -77 178 -106 277 -73 125 42 205 188 170 311 l-9 31 62 0
c231 1 346 281 182 446 -21 20 -41 37 -44 37 -4 0 -13 4 -21 9 -10 7 -4 18 29
51 72 72 95 163 65 265 -37 129 -194 212 -321 171 -19 -6 -20 -2 -21 56 -1
108 -57 194 -153 237 -61 27 -106 31 -169 14z"/>
<path d="M1509 3125 c-181 -60 -313 -207 -356 -395 -9 -41 -10 -132 -1 -190
16 -104 66 -200 147 -281 82 -82 143 -113 361 -183 80 -26 154 -51 165 -55 11
-5 223 -75 470 -157 248 -81 704 -231 1015 -334 311 -103 916 -303 1345 -444
429 -142 789 -262 800 -266 11 -5 112 -39 225 -76 198 -65 209 -68 305 -68
144 0 257 43 357 136 218 204 226 537 18 749 -39 40 -89 78 -125 96 -52 27
-559 196 -2630 881 -247 82 -727 240 -1065 351 -338 112 -624 207 -635 212
-11 5 -54 18 -95 29 -97 27 -210 25 -301 -5z"/>
</g>
</svg>
